<svg width="28" height="23" viewBox="0 0 28 23" fill="none" xmlns="http://www.w3.org/2000/svg">
<path d="M20.2418 3.05176e-05C17.6122 3.05176e-05 15.3653 1.78767 14.1309 3.02011C12.8964 1.78767 10.6545 3.05176e-05 8.02625 3.05176e-05C3.49608 3.05176e-05 0.333374 3.01174 0.333374 7.32289C0.333374 12.0732 4.26136 15.1435 8.06137 18.1133C9.85537 19.5169 11.7121 20.9671 13.136 22.5753C13.3756 22.8445 13.7269 23 14.0957 23H14.1685C14.5386 23 14.8886 22.8433 15.127 22.5753C16.5534 20.9671 18.4089 19.5157 20.2041 18.1133C24.0029 15.1447 27.9334 12.0744 27.9334 7.32289C27.9334 3.01174 24.7707 3.05176e-05 20.2418 3.05176e-05Z" fill="black"/>
</svg>
