<svg width="16" height="16" viewBox="0 0 16 16" fill="none" xmlns="http://www.w3.org/2000/svg">
<path d="M15.7983 7.70873C15.7983 8.04957 15.6691 8.37906 15.4276 8.61764C15.1917 8.86192 14.8659 8.99825 14.5288 8.99825H9.45078V14.1336C9.45078 14.4745 9.31597 14.8039 9.07442 15.0425C8.8385 15.2811 8.51831 15.4175 8.18127 15.4175C7.84423 15.4175 7.51843 15.2811 7.2825 15.0425C7.04096 14.8039 6.90614 14.4745 6.90614 14.1336V8.99825H1.8281C1.49107 8.99825 1.16526 8.86192 0.929336 8.61764C0.693409 8.37906 0.558594 8.04957 0.558594 7.70873C0.558594 7.36789 0.693409 7.04409 0.929336 6.79982C1.16526 6.56123 1.49107 6.42489 1.8281 6.42489H6.90614V1.28952C6.90614 0.948679 7.04096 0.619198 7.2825 0.380608C7.51843 0.136337 7.84423 0 8.18127 0C8.51831 0 8.8385 0.136337 9.07442 0.380608C9.31597 0.619198 9.45078 0.948679 9.45078 1.28952V6.42489H14.5288C14.8659 6.42489 15.1917 6.56123 15.4276 6.79982C15.6691 7.04409 15.7983 7.36789 15.7983 7.70873Z" fill="#53B175"/>
</svg>
