<svg width="24" height="26" viewBox="0 0 24 26" fill="none" xmlns="http://www.w3.org/2000/svg">
<path d="M1.5 6H3.83333H22.5" stroke="#B3B3B3" stroke-width="2" stroke-linecap="round" stroke-linejoin="round"/>
<path d="M7.33325 6.00004V3.66671C7.33325 3.04787 7.57909 2.45438 8.01667 2.01679C8.45426 1.57921 9.04775 1.33337 9.66659 1.33337H14.3333C14.9521 1.33337 15.5456 1.57921 15.9832 2.01679C16.4208 2.45438 16.6666 3.04787 16.6666 3.66671V6.00004M20.1666 6.00004V22.3334C20.1666 22.9522 19.9208 23.5457 19.4832 23.9833C19.0456 24.4209 18.4521 24.6667 17.8333 24.6667H6.16659C5.54775 24.6667 4.95425 24.4209 4.51667 23.9833C4.07908 23.5457 3.83325 22.9522 3.83325 22.3334V6.00004H20.1666Z" stroke="#B3B3B3" stroke-width="2" stroke-linecap="round" stroke-linejoin="round"/>
<path d="M14.3333 11.8334V18.8334" stroke="#B3B3B3" stroke-width="2" stroke-linecap="round" stroke-linejoin="round"/>
<path d="M9.66675 11.8334V18.8334" stroke="#B3B3B3" stroke-width="2" stroke-linecap="round" stroke-linejoin="round"/>
</svg>
