<svg width="21" height="24" viewBox="0 0 21 24" fill="none" xmlns="http://www.w3.org/2000/svg">
<path d="M20.3233 9.50424L11.3284 0.440337C11.2199 0.332527 11.0909 0.246955 10.9487 0.188559C10.8066 0.130163 10.6541 0.100098 10.5001 0.100098C10.3461 0.100098 10.1936 0.130163 10.0514 0.188559C9.90923 0.246955 9.78019 0.332527 9.67174 0.440337L0.676797 9.51574C0.459141 9.73207 0.287243 9.98887 0.171083 10.2712C0.0549226 10.5536 -0.00318472 10.8559 0.000134591 11.1606V20.7996C-0.000769364 21.3884 0.227368 21.9552 0.637567 22.3832C1.04777 22.8111 1.60879 23.0677 2.20512 23.1001H5.83343V12.7479C5.83343 12.4429 5.95635 12.1503 6.17514 11.9346C6.39393 11.7189 6.69067 11.5977 7.00009 11.5977H14C14.3095 11.5977 14.6062 11.7189 14.825 11.9346C15.0438 12.1503 15.1667 12.4429 15.1667 12.7479V23.1001H18.795C19.3913 23.0677 19.9524 22.8111 20.3626 22.3832C20.7728 21.9552 21.0009 21.3884 21 20.7996V11.1606C21.0009 10.5428 20.7583 9.94891 20.3233 9.50424Z" fill="black"/>
</svg>
